<svg xmlns="http://www.w3.org/2000/svg"><svg xmlns="http://www.w3.org/2000/svg" width="306" height="306" fill="none" style="z-index: 2; position: absolute; pointer-events: none;"><path fill="#fff" d="M236.1 278.4c-.7.5-1.5 1-2.2 1.5-.8.5-1.5 1-2.3 1.4-.7.4-1.3.8-2 1.2-.1.1-.2.1-.3.2-2.3 1.4-4.7 2.7-7.1 3.9-.7.4-1.5.8-2.2 1.1 0 0-.1.1-.2.1l-2.4 1.2c-1.6.8-3.3 1.5-4.9 2.2-.8.4-1.7.7-2.5 1-.8.3-1.7.7-2.5 1-.8.3-1.7.7-2.5 1h-.1c-.8.3-1.7.6-2.5.9-1.8.6-3.7 1.2-5.5 1.8-.6.2-1.3.4-1.9.6-1.9.6-3.8 1.1-5.7 1.5-.7.2-1.4.3-2.2.5-1.8.4-3.7.8-5.5 1.2-.4.1-.7.1-1.1.2-.6.1-1.3.2-1.9.3-.9.1-1.7.3-2.6.4-.4.1-.8.1-1.2.2-.5.1-1.1.2-1.7.2-1.6.2-3.3.4-4.9.6-.5.1-1.1.1-1.6.2h-.1c-.7.1-1.4.1-2.1.2-.7.1-1.4.1-2.1.1-.4 0-.9.1-1.3.1-.8 0-1.5.1-2.2.1-1 0-1.9.1-2.9.1h-5c-42.2-.6-80.1-18.5-107.2-46.9 0 0 0-.1-.1-.1-3-2.7-.4-17.1 11.7-26.2 15.2-11.5 51.6-18.7 51.6-18.7s14.1-2.3 66.4 8.6c30.6 6.4 53.9 15.7 66.9 40.9 2.7 5.2 5.4 13.2-4.1 17.4Z"></path><path fill="#000" d="M173.6 219c19.2 3.9 39.7 8.1 55.5 20.8 5.3 4.3 8.8 10.6 11.7 16.7 1.4 3 2.8 6.1 3.9 9.4.6 2.2 1.5 4.7 1 7.3-.1.7-.7 1.6-1.2 2.1-2.3 2.3-4.8 3.7-7.3 5.5-14.7 10.2-31.6 17.4-49.1 21.2-39 8.5-81.2 1.9-115.5-18.6-11.4-6.9-21.9-15.3-30.9-25.2-1-1.2-1-3.2-1-4.5.1-3 .9-5.9 1.9-8.6 2.4-6.2 5.5-12.4 10.8-16.7 3.8-2.6 7.9-4.8 12.1-6.6 13.2-5.6 27.1-9.5 41.4-11.1 1.2-.1 1.4 1.6.2 1.8-13.7 2.8-27.3 7-40 12.7-4.6 2.3-9.5 4.3-13.2 7.9-3.5 3.8-6 8.5-8 13.3-1.3 2.9-2.2 7.5-1.8 9.8 6.3 7.5 13.7 14.1 21.7 19.8 43.8 30.6 110.3 32.6 156.9 7.1 4.2-2.3 8.3-4.9 12.2-7.6 1.9-1.3 3.9-2.4 5.4-3.9.1-.1 0 0 0 .1s-.1.2-.1.2c.1-1.2-.3-2.8-.8-4.4-1.8-5.8-4.7-11.9-7.8-17.2-4.9-7.9-13.2-12.9-21.6-16.9-5.8-2.7-11.9-4.8-18.1-6.8-6.2-2-12.5-3.7-18.8-5.2-1.6-.4-1.1-2.7.5-2.4Z"></path></svg><svg xmlns="http://www.w3.org/2000/svg" width="306" height="343" fill="none" style="z-index: 3; position: absolute; pointer-events: none;"><path fill="#000" d="m256.6 338.6-240.1 1.8s9.9-40.2 21.5-74.7c4.3-12.8 6.2-29.1 16.4-36.8 11.5-8.7 27.7-11.9 38.4-15.7 5.7-2 10-1.9 14-3 0 .5.1.9.1 1.4 0 0 10.8 32.1 38.9 43.5 22.9 9.3 36.5 3.1 38.6-7.2 1.3-6.6-2.8-17.4-4.9-20.9-1.2-1-2-2.5-2.4-4l-.8-3.3c1.9-.4 3.7-.9 5.5-1.5.6-.2 1.8 1.6 2.3 1.4C197 223 223 231.5 235 244.7c14.8 15.8 21.6 93.9 21.6 93.9Z"></path><mask id="Outfit09_svg__a" width="241" height="131" x="16" y="210" maskUnits="userSpaceOnUse" style="mask-type: alpha;"><path fill="#000" d="m256.6 338.6-240.1 1.8s9.9-40.2 21.5-74.7c4.3-12.8 6.2-29.1 16.4-36.8 11.5-8.7 27.7-11.9 38.4-15.7 5.7-2 10-1.9 14-3 0 .5.1.9.1 1.4 0 0 10.8 32.1 38.9 43.5 22.9 9.3 36.5 3.1 38.6-7.2 1.3-6.6-2.8-17.4-4.9-20.9-1.2-1-2-2.5-2.4-4l-.8-3.3c1.9-.4 3.7-.9 5.5-1.5.6-.2 1.8 1.6 2.3 1.4C197 223 223 231.5 235 244.7c14.8 15.8 21.6 93.9 21.6 93.9Z"></path></mask><g fill="#fff" mask="url(#Outfit09_svg__a)"><path d="m120.21 228.069-13.435 13.435 13.435 13.435 13.435-13.435-13.435-13.435ZM172.897 228.038l-13.435 13.435 13.435 13.435 13.435-13.435-13.435-13.435ZM67.594 228.029 54.16 241.464l13.435 13.435 13.435-13.435-13.435-13.435ZM224.809 228.069l-13.435 13.435 13.435 13.435 13.435-13.435-13.435-13.435ZM95.875 279.97 82.44 293.405l13.435 13.435 13.435-13.435-13.435-13.435ZM148.562 279.939l-13.435 13.435 13.435 13.435 13.435-13.435-13.435-13.435ZM200.474 279.97l-13.435 13.435 13.435 13.435 13.435-13.435-13.435-13.435ZM120.219 331.965l-13.435 13.434 13.435 13.435 13.435-13.435-13.435-13.434ZM172.907 331.933l-13.435 13.435 13.435 13.435 13.434-13.435-13.434-13.435ZM67.604 331.924l-13.435 13.435 13.435 13.435 13.435-13.435-13.435-13.435ZM224.819 331.964l-13.435 13.435 13.435 13.435 13.435-13.435-13.435-13.435Z"></path></g><path fill="#000" d="M258.5 340.3c-71.4.7-171.7 2.3-242 2.6-1.4 0-2.6-1.1-2.6-2.5 5.1-21.5 11.3-42.8 17.9-63.9 1.1-3.5 2.2-7 3.4-10.4 2.4-6.9 3.9-14 6.2-21 4.3-13.3 10-19.1 22.6-24.8 8.6-3.9 17.4-6.1 26.1-8.9l2.6-.9c4.3-1.6 9.7-1.8 13.6-2.8 1.4-.3 2.7.5 3.1 1.8.1.1.2 1.7.2 1.9L107 209c1.1 0 2.1.7 2.4 1.7.8 2.3 1.9 4.7 3 7 7.8 15.9 20.3 30.2 37.4 36.1 8.8 3.1 20.1 5.5 28 .1 3.8-2.6 5-7.2 4.2-11.6-.7-4.7-2.3-9.7-4.6-13.9l.5.6c-1.8-1.8-2.6-4.5-2.7-6.9l-.2-2c-.2-.9.2-1.8 1.2-1.9 1.7-.3 3.4-.8 5-1.3.3-.1.9-.3 1.2-.2 1.3.3 1.5 1 2.3 1.5-.1 0-.3-.2-.8 0h.9c6.3 1.6 12.5 3.5 18.6 5.8 12.3 4.7 24.6 10 33.8 19.9 13 16.3 18.9 67.8 21.5 89.7 0 .2.3 3.3.4 3.6l.1.6v.4c0 .7-.3 1.6-.7 2.1Zm-3.8-3.4c-.3.3-.6.7-.6 1.1 0 .2-.1.4 0 .6v-.1c0-.4-.1-1.6-.2-2.1-2.6-24.5-5.7-49.5-12.5-73.2-2.3-7.2-4.8-14.9-10.7-19.7-8.3-7.2-18.5-11.8-28.7-15.7-5.9-2.2-12-4.2-18.2-5.8l1.5-.1c-.8.3-1.4.2-2-.1-.8-.4-1.5-1.1-1.9-1.7.2.1.9.2 1.3.1h.1-.1l-.3.1c-1.8.4-3.7.6-5.5.8l1.2-1.9c.8 2.1 1.3 4.7 3.3 5.8 1.9 2.5 2.8 5.5 3.8 8.4 1.3 4 2.3 8.2 2.1 12.5-.5 12-12.7 17-23.2 16.2-16.6-1.2-32.1-9.5-42.9-21.9-7.2-8.2-12.9-17.6-16.7-27.8l2.4 1.7c-1.4 0-2.5-1-2.6-2.4l-.1-1.3 3.2 2.3c-2 .5-3.9.8-5.7 1-5.4.6-10.2 2.7-15.4 4.2-7 2.1-13.9 4.2-20.3 7.1-6.1 2.9-12.3 6.2-15.7 12.3-3.5 6-5.3 13-7.2 19.8-1.8 7-4.4 14-6.6 21-6.6 20.8-12.4 41.8-17.7 63l-2.5-3.2c69-.5 168.5-1 238.4-1Z"></path><path fill="#000" d="M168.101 251s-6.9 5.2-5.4 10.1c1.5 4.9 14.8 4.1 17.4 0 2.5-4.1-8.8-11.1-12-10.1Z"></path><path fill="#fff" d="m167.9 250.8.2.2v-.2h-.2ZM141.401 246.8c-28.1-11.4-32.9-32.8-32.9-32.8l15.3-6.5c0-.5 4.1-4.7 4-5.1-.1-1.5-10.3-3.1-21.5.6-1.8.6-4 1.8-6 2.9-3.6 2.1-6.5 5.1-8.3 8.8 0 .1-.1.1-.1.2-.2 26.3 26.1 48.4 46.2 55.7 12.2 4.4 25.3-4 29.2-16.3.3-1.1.6-2.1.8-3.2l-.2-.2c-6.5 1.3-15.5.4-26.5-4.1Z"></path><path fill="#000" d="M140.9 248.2c-13.3-5.3-25.5-14.8-31.6-27.9-.9-1.9-1.6-3.8-2.2-6-.2-.7.2-1.4.9-1.7 4-1.7 10.4-4.4 14.3-6.1.2-.1.7-.3.9-.4-.3.1-.9.6-.9 1.3 0 .9.9 1.5 1.5 1.5l-1.5-1.4c0-.3.1-.7.1-.7.4-.9 1.2-1.7 1.8-2.4.4-.4 2-2.4 2.2-2.6-.1.3-.1.9.1 1.1.2.3.1.1-.1 0-3.8-1.3-8.1-1.3-12.1-.9-6.6.5-13.2 3.4-17.2 8.8-1.2 1.5-2.3 3.4-3.1 5 0-.1 0 0 .2-.5.1-1 0-.3.1-.5v.1c.2 21.5 16.5 39.7 34.3 50.2 5.8 3.1 12.2 6.7 19 5.6 9.9-1.4 18.1-10.2 19.1-20.1l.4 1.3-.2-.2 1.4.4c-9.4 2-18.8-.5-27.4-3.9Zm1.1-2.7c8 3.2 17 5.6 25.6 3.9.5-.1 1 .1 1.4.4.4.3.7.9.6 1.5-2.4 10.5-11.1 19.5-21.9 20.9-3.5.5-7.2 0-10.5-1.3-6.5-2.4-12.7-5.7-18.4-9.7-15.3-10.4-29.2-26.8-29.2-46.3v-.1c0-.2-.1.5.1-.5.1-.5.2-.4.2-.5 1.9-3.9 5.3-6.9 9.2-8.7 4.8-2.3 9.8-3.9 15.1-4.8 2.7-.5 15.3-2.2 15.2 2.3-.2.8-.7 1.3-1.1 1.9-.7.9-2.1 2.5-2.8 3.4 0 0-.2.2-.1.2v-.1s.1-.3.1-.5l-1.5-1.4c.2 0 .8.1 1 .5.6.6.5 1.7-.1 2.2-.5.3-.3.2-.4.2h-.1l-.1.1c-.4.2-1.2.5-1.7.7-3.5 1.5-9.8 4.2-13.4 5.7l.9-1.7c.5 1.7 1.2 3.6 2 5.3 6 12.2 17.3 21.3 29.9 26.4Z"></path><path fill="#fff" d="M194.901 243.8c-1.6-13.9-9.1-21.7-12.9-25.7-1.8.6-4.8 1.3-6.7 1.7 0 0 6.5 8.4 4.8 19.8-.8 5.4-4.9 9.5-11.9 11.1 0 .1 0 .1-.1.2 2.6 3 4.8 9.5 13.1 13.4 5.7 2.7 9.3-.4 11.8-6.1 2.1-4.9 2.4-10.5 1.9-14.4Z"></path><path fill="#000" d="M193.701 244c-.9-9.6-5.5-18.5-12.1-25.5l.6.1c-2.2 1-4.3 1.9-6.6 2.7l.9-2.4c3.9 5.6 5.8 12.3 5.3 19.1-.2 7.6-6.3 12.8-13.3 14.2l1.1-1-.1.2-.3-1.5c2.6 3.5 4 6.9 7.2 9.7 2.6 2.2 6.3 5 9.8 4.4 6.8-2 8.2-14 7.5-20Zm2.4-.3c.7 6.4-.4 13-3.9 18.4-4.7 7.4-12.1 4.1-17.5-.5-3.2-2.6-5.4-6.6-7.8-9.7-.8-.9-.2-2.5.9-2.7 2.9-.7 5.7-1.9 7.7-3.9 6.1-6 3-18.4-1.4-24.7l-.2-.8c-.2-.7.2-1.4.8-1.6 2.4-.3 4.8-.4 7.1-.8.2-.1.4 0 .6.1 7.4 7 12.5 16.2 13.7 26.2Z"></path></svg><svg xmlns="http://www.w3.org/2000/svg" width="306" height="306" fill="none" style="z-index: 4; position: absolute; pointer-events: none;"><path fill="#fff" d="M182.999 245.6c-2.1 10.3-15.7 16.5-38.6 7.2-23.8-9.6-34.1-32.5-36.7-39.3 14.1-26.4 4.3-44.7 4.3-44.7 32.5-2.8 60.9 35.2 60.9 35.2l4.4 18.8c.4 1.6 1.2 3 2.4 4 2.1 3.7 4.6 12.2 3.3 18.8Z"></path><path fill="#000" d="M107.2 213.8c1.9-2.9 3.1-6.3 3.9-9.6 1.5-6.9 2-13.9 2.1-20.9v-2.6c-.3-2.6-1.2-5.3-2.2-7.7-1.3-3.2 3.4-5.2 4.9-2 .2.4.2 1.1.2 1.5.3 13.6.9 31.1-7.7 42.4-.6.6-1.8-.3-1.2-1.1ZM174 203.8c1.5.9 2 2.1 2.2 3.3.6 2.4.4 5 1 7.5.5 2.4 2 4.7 2.4 7.2.5 2.6 2 8.1 2.6 10.8.2.6-.2 1.3-.9 1.4-.4.1-.7 0-1-.2-1.3-1.1-1.9-2.2-2.7-3.6-1.3-2.4-2.2-4.6-3-7.3-.7-2.4-.4-5-1-7.5-.5-2.4-1.9-4.7-2.4-7.2-.3-1.2-.4-2.5.5-4 .6-.6 1.6-.8 2.3-.4Z"></path><path fill="#000" d="M181.2 230.2c-19.1-1-34.7-7-49.9-34.1 12.8 11.3 27.9 15.6 43.8 17.6l2.1 9.2c.4 1.6 2.8 6.3 4 7.3Z"></path><path fill="#000" d="M180.4 226.5c3.4 6.4 5.4 14.4 3.3 21.5-1.6 5-6.2 8.7-11.2 10.1-11.6 3.1-25-1.8-35.3-7.3-12.7-7.1-22.1-19-28.1-32-.4-1 1-1.8 1.6-.8 2.1 4.2 4.5 8.3 7.2 12 2.7 3.8 5.8 7.3 9.3 10.4 10.2 9.2 24 14.9 37.8 14.9 14.2-.4 19.6-7.9 16.3-21.7-.5-2.2-1.3-4.5-2.4-6.4-.6-.8.9-1.7 1.5-.7Z"></path><path fill="#fff" d="M219.1 106.4c1.8 8.4 2.7 15.2-2.2 37.6-4.8 22.3 6.9 26.9-20.8 62.6-11.3 14.6-38.7 10.5-60.9-4.6-7.5-5.1-10.7-18.2-16.3-27.5-4.4-7.3-6.4.3-12.2-6-7.9-8.6-17.4-25.9-12.7-56.5 7.6-49.6 46.9-55.4 76-49.9 29.3 5.6 44.3 22.2 49.1 44.3Z"></path><path fill="#000" d="M111.7 177.4c-2.3-3.9-5.3-7.3-8.1-10.9-2.7-3.7-4.9-7.8-6.7-12C85 125.3 89.6 84.2 118.8 67c12.1-7 26.7-8.7 40.3-7.6 29.1 2.1 55.8 15.5 62.1 46.3 3.4 13.6-1.2 27.6-3.8 40.9-1.2 6.6-.2 13.4-.3 20.2-.1 6.9-2 13.8-4.6 20.2-1.6 4.4-4.4 8.3-7.3 11.9-4.8 5.8-9.6 11.7-15.7 16.2-1.4 1-3.9 1.5-5.6 1.7-4.7.7-9.3.9-14 .6-18.4-.8-38.1-9.7-45.5-27.5-.3-.7.7-1.2 1.1-.6 9.6 15.2 27.2 22.7 44.7 23.7 5.4.3 10.9.2 16.2-.9 2.6-1.3 4.9-3.6 7.1-5.7 5.4-5.4 10.9-11.2 14.8-17.8 4.7-8.9 7.3-18.6 6.5-28.7-.2-4.5-.3-9.2.6-13.7.8-4.5 1.8-8.8 2.4-13.4.6-4.4.9-8.9.9-13.3-.5-12.9-4.7-26.2-12.9-36.2-18.1-22.5-60.9-28.4-85-13-15.2 9.4-22.3 27-24.6 44.1-3.5 20.5-2.5 40.7 13.8 55.6l4.8 5c1.9 2.2-1.5 4.8-3.1 2.4Z"></path><path fill="#fff" d="M123.499 145.6s-3.1-15-17.7-13.2c-12.6 1.6-17 31.8 11.6 40.2"></path><path fill="#000" d="M116.1 159.5c-2.3-1.3-3.9-3.5-4-6.2.1-2 .4-4.3-.1-6.3-.3-1.9-2.3-2.4-3.8-2.3-1.6.3-2.6 2.3-2.9 3.9 0 .1-.1.4-.1.5-.1.5-.9.5-1.1 0-1.3-3.9 1.6-8.2 5.8-7.7 5.9.4 6.7 6.6 5.6 11.3-.6 2 .2 3.8 1.3 5.5l.2.3c.5.6-.3 1.4-.9 1ZM196.1 135c1.5 7.1 4.3 13.7 7.8 19.9 3.1 7.6-4.9 14.8-12 14.5-.8 0-.9-1.1-.2-1.3 4.5-1.4 8.6-4.4 9.3-9 .3-1.4-.1-2.6-.8-3.8-3.3-6.2-5.3-13.3-4.8-20.3 0-.5.7-.5.7 0Z"></path><path fill="#000" d="M123 145.7c-2.3-5.9-7.3-11.5-14-11.4-.6-.1-1.6.1-2.2.1-1.7.1-3.1.7-4.4 1.9-6.4 6.4-5.3 17.7-.1 24.8 1.8 2.5 4.1 4.7 6.7 6.5 2.6 1.8 5.5 3.2 8.6 4.4.7.2.4 1.3-.3 1.2-6.7-1.4-13.1-4.7-17.5-10.2-6.8-8.2-8.2-21.9-.1-29.9 1.8-1.6 4.3-2.8 6.8-2.8.8 0 2-.2 2.8 0 4.2.2 8.2 2.3 10.8 5.6 2.3 2.8 3.6 6.2 4 9.6 0 .6-.9.8-1.1.2Z"></path></svg><svg xmlns="http://www.w3.org/2000/svg" width="306" height="306" fill="none" style="z-index: 5; position: absolute; pointer-events: none;"><path fill="#000" d="M171.6 54.8c-44.8-4.3-59.7 10.7-65.6 16-8.3 7.3-20.9 36.2-20.4 52.7.6 23 19 47.3 19.8 48.5 4.1 6.1 8.3 9.8 9.4 11.1-.6-2.2-1.6-10.1-.7-11.5-25-9.6-20.5-37.5-8.3-39.1 12.8-1.6 16.8 9.8 17.5 12.6 0 0 0 .3.1.8.1 0 .2.1.3.1 4.4 1.5 8.5-2.9 7-7.2-2.3-6.3-4.9-13.6-5.3-18.3-.6-13.6 4.9-29.1 45.4-26.9 5.2.3 9.7 1.1 14.1 2 2.2.6 8.1 2.9 6.1 8.6-1.9 5.5-5.8 1-6.9 1.5-.6.3 3.2 5.4 8.8 4.4 4.6-.8 8.3-5.5 6.7-11.7 1.6.2 3.3.4 5 .6 10.8.8 20.5-7.6 20.2-18.4-.3-11-10.6-21.7-53.2-25.8Z"></path><path fill="#000" d="M115.101 183.5c0-.1-.1-.2-.3-.5.2.6.3.8.3.5Z"></path></svg><svg xmlns="http://www.w3.org/2000/svg" width="306" height="306" fill="none" style="z-index: 6; position: absolute; pointer-events: none;"><path fill="#000" d="M173.5 124.4c2.2.3 3.9-2 3.1-4.2-.4-1.2-1.1-2.3-2.2-3-3.4-2.1-16.1-2.3-22.8 2.5-6 4.4 11.9 3.3 21.9 4.7ZM201.2 125.5c-1.8 0-2.9-2.3-2-4.2.5-1 1.2-1.9 2.2-2.4 3.1-1.5 11.4-.6 15.1 4.5 3.3 4.5-7 2-15.3 2.1ZM169.8 137.3c-5.1-2.2-10.9-1.6-16.2-.4-.6.2-1-.6-.5-1 4.6-3.8 13.3-4.3 17 .9.3.2.1.6-.3.5ZM209.1 139.4c-2.4-1.7-5.9-1.4-8.7-1.1-1 .1-2 .3-3.1.6-.3.1-.6-.4-.4-.6l.2-.2c2.5-2.6 6.4-3.2 9.8-1.9 1.2.5 2.4 1.2 3 2.6.3.5-.4 1-.8.6Z"></path></svg><svg xmlns="http://www.w3.org/2000/svg" width="306" height="306" fill="none" style="z-index: 7; position: absolute; pointer-events: none;"><path fill="#000" d="M186.2 179c.1 1.6-1.1 4.4-3.3 6.4-11.3-6.9-16.4-3.3-16.4-3.3-4-6.1-3.1-14.4 6.6-8.1 6.7 4.4 10.9 5.1 13.1 5Z"></path><path fill="#fff" d="M182.799 185.5c-2.4 2.1-6 3.4-10.9 1.4-2.3-.9-4.1-2.7-5.5-4.7.1 0 5.1-3.6 16.4 3.3Z"></path><path stroke="#000" stroke-linecap="round" stroke-linejoin="round" stroke-miterlimit="10" stroke-width="3" d="M188.1 178.7s-4.2 2.3-15-4.6c-12.9-8.3-10.3 9.1-1.2 12.8 9.5 3.9 14.4-4.6 14.3-7.8"></path><path stroke="#000" stroke-linecap="round" stroke-linejoin="round" stroke-miterlimit="10" stroke-width="3" d="M166.5 182.2s5.1-3.6 16.4 3.3"></path></svg><svg xmlns="http://www.w3.org/2000/svg" width="306" height="306" fill="none" style="z-index: 8; position: absolute; pointer-events: none;"></svg><svg xmlns="http://www.w3.org/2000/svg" width="306" height="306" fill="none" style="z-index: 9; position: absolute; pointer-events: none;"><path fill="#000" d="M174.7 157.5s-9.4 5.9-20 5.8c-10.6-.1-11.9-8.4-12-12.9 0 0 1.4 6.5 7.8 8.9 6.3 2.4 24.2-1.8 24.2-1.8ZM204.899 156.4s2.3 2.8 5.4 4.8c2.1 1.4 4.9-.1 4.9-2.6 0 0-5.8.3-10.3-2.2Z"></path><path fill="#000" d="M178.2 130.8c-5.4-.5-19-1.6-24.2-2.1l-4-.3c-3.3-.2-5.9 2.6-6.5 5.8-.2 1-.2 2.7-.2 3.7v4.1c0 2.5-.1 5.1.8 7.5 1.6 5.6 6.7 10.1 12.7 9.4.6-.1 4.3-.5 5-.6l8.1-.9c2.6-.2 5-.9 7.3-2.3 3.2-1.9 6.3-4.8 6.1-8.9l.2-4c.2-5 1.6-10.9-5.3-11.4Zm.3-3.3c4.7.4 7.9 5.3 7.6 9.8 0 .6-.2 4.4-.3 5.1 0 .8-.2 4.4-.3 5.1-.5 6.8-8.1 11.6-14.3 12.5-3.2.4-9.9 1.3-13.1 1.7-.8.1-1.9.2-2.7.3-.4 0-1.3-.1-1.7-.1-8.5-1.1-13.9-9.8-13.7-17.9v-6.1c0-.7 0-2.5.1-3.2.3-3.5 2.2-6.9 5.4-8.8 1.4-.8 3.1-1.2 4.8-1.1l4.1.4c5 .6 18.8 1.9 24.1 2.3ZM201.7 129.1c2.2-.3 13-1.5 15-1.7.5 0 1.8-.2 2.2-.2 4.3-.6 6.3 4.1 6.7 7.6.2 3.1 0 6.1.1 9.1 0 2.1-.2 4.2-.7 6.2-1.3 5.4-5.1 11.1-11.4 9.3-1.5-.3-4.5-.7-5.9-1l-1.5-.3c-2.9-.5-5.3-2.5-6.9-4.7-3-3.5-2.4-8.2-2.7-12.4-.4-4.2-.3-10.7 5.1-11.9Zm.4 2.9c-3.1 1.4-2.3 6.1-2.3 8.9l.2 6c.1 3.8 3.1 7.6 6.7 8.6.9.2 3.4.7 4.4.9l2.9.6c7.2 2.3 10-7.7 9.9-13.2-.3-4.6 1.1-10.1-2.2-13.8-.8-.8-1.6-1-2.5-.8-.5.1-1.8.3-2.2.4-2 .4-12.8 2.1-14.9 2.4Z"></path><path fill="#000" d="M141.6 138.4c-.8 1.8-1.5 1.6-2.9 1.6l-2.9-.1c-3.7-.2-7.8-.5-11.5-1-2-.3-4.1-.6-6.1-1.1-.8-.2-1.3-1-1.1-1.8.2-.7.8-1.2 1.5-1.1l5.8.3 5.8.2c1.9.1 6.8.2 8.7.3 1 0 1.9.1 2.9-.2.4-.1.8.1.9.5.1.2 0 .3 0 .5l-1.1 1.9ZM184.2 136.3c3.6-2 13.1-4.8 14.9.6.8 1.4-1.3 2.7-2.2 1.3 0 .2-.5 0-.7 0-3.8-.3-7.7.3-11.5.6-1.6.2-1.9-1.9-.5-2.5Z"></path></svg></svg>